<svg fill="#000000" height="200px" width="200px" version="1.1" id="Layer_1"
     xmlns="http://www.w3.org/2000/svg" viewBox="-49 -49 588 588" xmlns:xlink="http://www.w3.org/1999/xlink">
  <!-- document + play ► shape -->
  <g>
    <path transform="translate(-49,-49) scale(18.375)" 
          d="M16,30.2984C18.5845,30.0136,18.6556,25.7859,20.8057,24.3238
             C22.7118,23.0276,25.9618,24.3890,27.3716,22.5654C28.7335,20.8036,27.0662,18.2200,27.2403,16
             C27.4336,13.5357,29.8568,10.8446,28.4504,8.8117C26.9987,6.7134,23.5339,7.9505,21.1132,7.1436
             C19.2847,6.5341,17.8796,5.0882,16,4.6615C13.7980,4.1616,11.2280,3.2268,9.3441,4.4717
             C7.4418,5.7288,8.0201,8.7604,6.8425,10.7129C5.6320,12.7199,3.0369,13.7470,2.3909,16
             C1.6963,18.4221,1.5635,21.4766,3.2087,23.3851C4.8956,25.3421,8.2682,24.2265,10.5412,25.4549
             C12.7183,26.6316,13.5401,30.5695,16,30.2984"
          fill="#7ed0ec" stroke-width="0"/>
    <polygon points="115.167,185 177.433,185 145.295,114.698"/>
    <path d="M450,0h-410c-22.056,0-40,17.944-40,40v280c0,22.056,17.944,40,40,40h235v120
             c0,4.118,2.524,7.814,6.358,9.314c1.184,0.463,2.417,0.687,3.639,0.687
             c2.738,0,5.42-1.126,7.35-3.218L409.38,360H450c22.056,0,40-17.944,40-40V40
             C490,17.944,472.057,0,450,0z
             M350,115h60v20h-60V115z
             M255,115h80v20h-80V115z
             M215.907,269.158L186.576,205h-79.982l-27.402,63.939l-18.383-7.878
             l75-175c1.559-3.637,5.115-6.013,9.072-6.06c3.981-0.027,7.569,2.243,9.214,5.842
             l80,175L215.907,269.158z
             M330,235h-75v-20h75V235z
             M435,185h-180v-20h180V185z"/>
  </g>

  <!-- QA text centered -->
  <text x="245" y="265" text-anchor="middle" alignment-baseline="middle"
        font-family="Arial, sans-serif" font-size="120" fill="#000">
    QA
  </text>
</svg>
